<?xml version="1.0" encoding="utf-8"?>
<!-- Generator: Adobe Illustrator 22.1.0, SVG Export Plug-In . SVG Version: 6.00 Build 0)  -->
<svg version="1.1" id="Layer_1" xmlns="http://www.w3.org/2000/svg" xmlns:xlink="http://www.w3.org/1999/xlink" x="0px" y="0px"
	 viewBox="0 0 256 256" style="enable-background:new 0 0 256 256;" xml:space="preserve">
<style type="text/css">
	.st0{fill:#D73735;}
	.st1{fill:#F85252;}
	.st2{fill:#EDAF85;}
	.st3{fill:#F7C09A;}
	.st4{fill:#D8D6D7;}
	.st5{fill:#FFFFFF;}
	.st6{fill:#1C868E;}
	.st7{fill:#40C4DF;}
	.st8{fill:#491352;}
	.st9{fill:#56C1B3;}
	.st10{fill:#7BEFE4;}
</style>
<g>
	<rect x="114.17" y="147.67" class="st4" width="27.66" height="84.16"/>
	<rect x="131.09" y="147.67" class="st5" width="10.74" height="84.16"/>
	<path class="st5" d="M191.67,236.83v11.67c0,2.76-2.24,5-5,5H85.33c-2.76,0-5-2.24-5-5v-11.67c0-2.76,2.24-5,5-5h101.34
		C189.43,231.83,191.67,234.07,191.67,236.83z"/>
	<path class="st4" d="M245.36,165.897H10.64c-2.761,0-5-2.239-5-5V8c0-2.761,2.239-5,5-5h234.72c2.761,0,5,2.239,5,5v152.897
		C250.36,163.658,248.121,165.897,245.36,165.897z"/>
	<path class="st9" d="M237.36,21v126.9c0,2.76-2.24,5-5,5H23.64c-2.76,0-5-2.24-5-5V21c0-2.76,2.24-5,5-5h208.72
		C235.12,16,237.36,18.24,237.36,21z"/>
	<path class="st10" d="M237.36,21v126.9c0,2.76-2.24,5-5,5H45.39c-2.76,0-5-2.24-5-5V21c0-2.76,2.24-5,5-5h186.97
		C235.12,16,237.36,18.24,237.36,21z"/>
	<path class="st1" d="M218.3,72.24h-9.49c-0.83-2.79-1.94-5.51-3.36-8.11l6.71-6.71c1.64-1.63,1.64-4.29,0-5.93l-10.98-10.96
		c-1.64-1.64-4.28-1.64-5.93,0l-6.7,6.71c-2.61-1.43-5.33-2.54-8.12-3.36v-9.49c0-2.31-1.88-4.19-4.19-4.19h-15.51
		c-2.32,0-4.2,1.88-4.2,4.19v9.49c-2.79,0.82-5.5,1.94-8.1,3.36l-6.72-6.71c-1.63-1.64-4.29-1.64-5.92,0l-10.97,10.96
		c-1.64,1.64-1.64,4.3,0,5.93l6.71,6.71c-1.54,2.83-2.72,5.79-3.56,8.84h-9.29c-2.31,0-4.19,1.88-4.19,4.18v15.52
		c0,2.32,1.88,4.19,4.19,4.19h9.72c0.78,2.54,1.83,5.02,3.13,7.39l-6.71,6.71c-1.64,1.64-1.64,4.29,0,5.93l10.97,10.98
		c1.63,1.63,4.29,1.63,5.92,0l6.72-6.72c2.6,1.42,5.31,2.54,8.1,3.37V134c0,2.32,1.88,4.2,4.2,4.2h15.51c2.31,0,4.19-1.88,4.19-4.2
		v-9.48c2.79-0.83,5.52-1.95,8.12-3.37l6.7,6.72c1.65,1.63,4.29,1.63,5.93,0l10.98-10.98c1.64-1.64,1.64-4.29,0-5.93l-6.71-6.7
		c1.42-2.6,2.53-5.33,3.36-8.12h9.49c2.31,0,4.19-1.88,4.19-4.19V76.44C222.49,74.12,220.61,72.24,218.3,72.24z M168.49,109.69
		c-14.13,0-25.49-11.47-25.49-25.49c0-14.15,11.48-25.49,25.49-25.49c14.08,0,25.49,11.41,25.49,25.49
		C193.98,98.32,182.53,109.69,168.49,109.69z"/>
	<path class="st4" d="M191.67,236.83v11.67c0,2.76-2.24,5-5,5H69.33c-2.76,0-5-2.24-5-5v-11.67c0-2.76,2.24-5,5-5h117.34
		C189.43,231.83,191.67,234.07,191.67,236.83z"/>
	<path class="st5" d="M191.67,236.83v11.67c0,2.76-2.24,5-5,5H85.33c-2.76,0-5-2.24-5-5v-11.67c0-2.76,2.24-5,5-5h101.34
		C189.43,231.83,191.67,234.07,191.67,236.83z"/>
	<path class="st5" d="M114.49,77.15v15.52c0,2.32,1.88,4.19,4.19,4.19h9.72c0.78,2.54,1.83,5.02,3.13,7.39l-4.21,4.21H38.51
		c-2.76,0-5-2.24-5-5V65.48c0-2.76,2.24-5,5-5h89.37l3.65,3.65c-1.54,2.83-2.72,5.79-3.57,8.84h-9.28
		C116.37,72.97,114.49,74.85,114.49,77.15z"/>
	<path class="st8" d="M245.36,0.75H10.64c-3.86,0-7,3.14-7,7v152.896c0,3.86,3.14,7,7,7h101.53v61.932H69.333c-3.86,0-7,3.14-7,7
		v11.671c0,3.86,3.14,7,7,7h117.333c3.86,0,7-3.14,7-7v-11.671c0-3.86-3.14-7-7-7H143.83v-61.932h101.53c3.86,0,7-3.14,7-7V7.75
		C252.36,3.89,249.22,0.75,245.36,0.75z M186.667,233.579c1.654,0,3,1.346,3,3v11.671c0,1.654-1.346,3-3,3H69.333
		c-1.654,0-3-1.346-3-3v-11.671c0-1.654,1.346-3,3-3h42.836v0.001h31.66v-0.001H186.667z M139.83,229.579h-23.66v-61.932h23.66
		V229.579z M248.36,160.646c0,1.654-1.346,3-3,3H10.64c-1.654,0-3-1.346-3-3V7.75c0-1.654,1.346-3,3-3h234.72c1.654,0,3,1.346,3,3
		V160.646z"/>
	<path class="st8" d="M232.36,13.75H23.64c-3.86,0-7,3.14-7,7v126.896c0,3.86,3.14,7,7,7h208.72c3.86,0,7-3.14,7-7V20.75
		C239.36,16.89,236.22,13.75,232.36,13.75z M235.36,147.646c0,1.654-1.346,3-3,3H23.64c-1.654,0-3-1.346-3-3V20.75
		c0-1.654,1.346-3,3-3h208.72c1.654,0,3,1.346,3,3V147.646z"/>
	<path class="st8" d="M168.492,56.706c-15.16,0-27.493,12.333-27.493,27.493c0,15.157,12.333,27.488,27.493,27.488
		c15.157,0,27.488-12.331,27.488-27.488C195.979,69.04,183.648,56.706,168.492,56.706z M168.492,107.687
		c-12.954,0-23.493-10.537-23.493-23.488c0-12.954,10.539-23.493,23.493-23.493c12.951,0,23.488,10.539,23.488,23.493
		C191.979,97.15,181.443,107.687,168.492,107.687z"/>
	<path class="st8" d="M218.295,70.243h-8.017c-0.661-1.979-1.457-3.898-2.378-5.734l5.669-5.668
		c1.169-1.165,1.814-2.718,1.816-4.373c0.001-1.658-0.643-3.216-1.814-4.388l-10.977-10.963c-2.41-2.41-6.337-2.413-8.757,0
		l-5.666,5.666c-1.844-0.924-3.765-1.719-5.739-2.375v-8.015c0-3.416-2.779-6.194-6.194-6.194h-15.51
		c-3.416,0-6.194,2.778-6.194,6.194v8.015c-1.957,0.652-3.875,1.447-5.732,2.376l-5.67-5.665c-1.167-1.171-2.721-1.817-4.378-1.817
		c-1.657,0-3.212,0.646-4.375,1.813l-10.971,10.965c-1.171,1.171-1.815,2.729-1.814,4.387c0.002,1.492,0.53,2.898,1.488,4.013H38.51
		c-3.86,0-7,3.14-7,7v37.98c0,3.86,3.14,7,7,7h84.153c-1.627,2.41-1.383,5.716,0.744,7.843l10.971,10.978
		c1.167,1.167,2.72,1.809,4.376,1.809c1.655,0,3.209-0.643,4.375-1.809l5.674-5.674c1.84,0.92,3.758,1.716,5.731,2.377v8.02
		c0,3.416,2.778,6.194,6.194,6.194h15.51c3.416,0,6.194-2.778,6.194-6.194v-8.02c1.983-0.665,3.905-1.46,5.742-2.377l5.668,5.679
		c2.417,2.397,6.342,2.396,8.752-0.006l10.977-10.977c2.41-2.41,2.411-6.337-0.001-8.759l-5.67-5.66
		c0.92-1.838,1.717-3.761,2.378-5.744h8.017c3.416,0,6.194-2.779,6.194-6.194v-15.51C224.49,73.021,221.711,70.243,218.295,70.243z
		 M35.51,103.46V65.48c0-1.654,1.346-3,3-3h88.536l2.028,2.03c-0.943,1.887-1.745,3.856-2.411,5.88
		c-0.064,0.193-0.133,0.383-0.194,0.576h-7.785c-1.799,0-3.416,0.774-4.548,2.002c-1.018,1.102-1.646,2.568-1.646,4.182v0.004V92.67
		v0.001c0,3.416,2.778,6.194,6.194,6.194h8.264c0.595,1.706,1.306,3.382,2.124,5.011l-2.582,2.584H38.51
		C36.856,106.46,35.51,105.114,35.51,103.46z M220.49,91.947c0,1.21-0.984,2.194-2.194,2.194h-9.483
		c-0.885,0-1.666,0.582-1.917,1.431c-0.805,2.712-1.883,5.313-3.204,7.73c-0.426,0.78-0.286,1.747,0.342,2.375l6.708,6.695
		c0.855,0.858,0.856,2.25,0.003,3.104l-10.975,10.974c-0.855,0.852-2.249,0.851-3.102,0.004l-6.699-6.711
		c-0.627-0.627-1.593-0.768-2.371-0.344c-2.417,1.315-5.021,2.394-7.738,3.207c-0.847,0.253-1.427,1.032-1.427,1.916v9.483
		c0,1.209-0.984,2.194-2.194,2.194h-15.51c-1.209,0-2.194-0.984-2.194-2.194v-9.483c0-0.884-0.58-1.663-1.427-1.916
		c-2.698-0.807-5.297-1.886-7.725-3.207c-0.301-0.164-0.629-0.243-0.955-0.243c-0.518,0-1.03,0.201-1.415,0.586l-6.712,6.711
		c-0.822,0.823-2.272,0.821-3.093,0l-10.971-10.978c-0.853-0.854-0.852-2.246,0.001-3.102l2.495-2.498
		c0.001-0.001,0.002-0.001,0.002-0.002l4.21-4.21c0.629-0.628,0.767-1.596,0.339-2.376c-1.231-2.246-2.231-4.606-2.972-7.016
		c-0.258-0.839-1.033-1.413-1.912-1.413h-9.72c-1.208,0-2.19-0.982-2.19-2.19V77.154c0-0.603,0.246-1.149,0.643-1.545
		c0.397-0.395,0.944-0.639,1.548-0.639h9.28c0.45,0,0.872-0.151,1.212-0.41c0.341-0.259,0.6-0.626,0.72-1.061
		c0.168-0.608,0.359-1.208,0.554-1.806c0.757-2.302,1.704-4.52,2.84-6.607c0.424-0.779,0.284-1.744-0.343-2.37l-3.65-3.65
		c-0.007-0.007-0.017-0.012-0.024-0.02l-3.037-3.04c-0.412-0.41-0.639-0.958-0.64-1.543c0-0.588,0.228-1.14,0.642-1.554
		l10.974-10.968c0.821-0.824,2.263-0.829,3.092,0.004l6.712,6.705c0.627,0.627,1.593,0.765,2.369,0.342
		c2.46-1.338,5.057-2.414,7.717-3.198c0.851-0.25,1.435-1.032,1.435-1.918v-9.483c0-1.209,0.984-2.194,2.194-2.194h15.51
		c1.21,0,2.194,0.984,2.194,2.194v9.483c0,0.887,0.584,1.668,1.435,1.918c2.692,0.793,5.29,1.869,7.72,3.196
		c0.78,0.426,1.746,0.287,2.373-0.341l6.703-6.702c0.858-0.854,2.251-0.856,3.104-0.002l10.977,10.963
		c0.415,0.415,0.643,0.967,0.642,1.555c0,0.585-0.228,1.133-0.642,1.546l-6.711,6.711c-0.628,0.628-0.767,1.596-0.34,2.375
		c1.321,2.413,2.399,5.009,3.202,7.716c0.252,0.849,1.032,1.431,1.917,1.431h9.483c1.21,0,2.194,0.984,2.194,2.194V91.947z"/>
	<path class="st8" d="M53.639,70.354L43.096,99.348h4.017l2.343-6.485h12.719l2.343,6.485h4.017L58.032,70.354H53.639z
		 M50.543,89.767l5.272-14.728l5.271,14.728H50.543z"/>
	<path class="st8" d="M82.547,70.186h-9.414v29.162h3.808V87.173h5.606c7.238,0,10.083-4.017,10.083-8.452
		C92.63,73.952,89.408,70.186,82.547,70.186z M82.547,84.035H76.94V73.324h5.606c4.351,0,6.192,2.008,6.192,5.397
		C88.739,81.985,86.898,84.035,82.547,84.035z"/>
	<rect x="97.354" y="70.186" class="st8" width="3.808" height="29.162"/>
</g>
</svg>
