<svg xmlns="http://www.w3.org/2000/svg" xmlns:xlink="http://www.w3.org/1999/xlink" version="1.1" width="256" height="256" viewBox="0 0 256 256" xml:space="preserve">

<defs>
</defs>
<g style="stroke: none; stroke-width: 0; stroke-dasharray: none; stroke-linecap: butt; stroke-linejoin: miter; stroke-miterlimit: 10; fill: none; fill-rule: nonzero; opacity: 1;" transform="translate(27.094163424124503 27.094163424124474) scale(2.23 2.23)" >
	<path d="M 53.337 82.155 c -1.104 0 -2 -0.895 -2 -1.999 s 0.895 -2.001 1.999 -2.001 c 1.757 -0.001 3.187 -1.432 3.188 -3.189 c 0.001 -3.172 2.055 -5.151 3.976 -5.945 c 1.918 -0.795 4.771 -0.847 7.013 1.394 c 1.205 1.207 3.303 1.205 4.508 0.002 l 6.241 -6.241 c 0.603 -0.602 0.934 -1.402 0.934 -2.254 c 0.001 -0.853 -0.331 -1.652 -0.933 -2.255 c -2.244 -2.243 -2.192 -5.095 -1.396 -7.016 c 0.794 -1.919 2.772 -3.972 5.944 -3.972 c 0.001 0 0.002 0 0.003 0 c 0.851 0 1.65 -0.332 2.253 -0.934 C 85.668 47.143 86 46.343 86 45.491 v -8.827 c 0 -0.852 -0.331 -1.652 -0.934 -2.254 c -0.602 -0.603 -1.401 -0.934 -2.252 -0.934 c -0.001 0 -0.001 0 -0.001 0 c -3.174 0 -5.153 -2.054 -5.948 -3.976 c -0.796 -1.917 -0.848 -4.769 1.397 -7.014 c 1.241 -1.243 1.241 -3.264 -0.001 -4.505 l -6.241 -6.243 c -1.203 -1.202 -3.301 -1.205 -4.51 0.001 c -2.244 2.242 -5.096 2.19 -7.015 1.394 c -1.92 -0.795 -3.973 -2.775 -3.973 -5.946 c 0 -0.849 -0.332 -1.648 -0.935 -2.251 C 54.985 4.333 54.186 4.001 53.335 4 l -8.827 0 c -0.424 0 -0.835 0.081 -1.219 0.24 c -0.385 0.159 -0.732 0.393 -1.034 0.694 c -0.602 0.601 -0.933 1.401 -0.933 2.252 c 0 3.17 -2.052 5.151 -3.973 5.947 c -1.921 0.796 -4.773 0.847 -7.017 -1.396 c -1.241 -1.239 -3.263 -1.239 -4.506 0.002 l -6.243 6.242 c -1.241 1.242 -1.24 3.265 0.002 4.507 c 2.243 2.243 2.191 5.095 1.394 7.016 c -0.796 1.92 -2.776 3.972 -5.946 3.972 c 0 0 -0.001 0 -0.001 0 c -1.754 0.002 -3.185 1.433 -3.186 3.189 c -0.001 1.104 -0.896 1.999 -2 1.999 c 0 0 -0.001 0 -0.001 0 c -1.104 -0.001 -2 -0.897 -1.999 -2.001 c 0.003 -3.958 3.226 -7.182 7.184 -7.187 h 0 c 1.419 0 2.021 -0.943 2.254 -1.505 c 0.233 -0.562 0.474 -1.652 -0.528 -2.655 c -2.801 -2.801 -2.802 -7.36 -0.002 -10.163 l 6.245 -6.244 c 2.803 -2.799 7.36 -2.8 10.162 -0.002 c 1.003 1.003 2.096 0.763 2.658 0.53 c 0.561 -0.232 1.504 -0.835 1.504 -2.251 c 0 -1.919 0.748 -3.724 2.105 -5.082 c 0.675 -0.675 1.459 -1.2 2.331 -1.561 C 42.629 0.184 43.554 0 44.507 0 l 8.829 0 c 1.919 0 3.724 0.75 5.082 2.108 c 1.358 1.359 2.106 3.163 2.105 5.08 c 0 1.416 0.942 2.018 1.505 2.25 c 0.561 0.232 1.651 0.474 2.656 -0.529 c 1.357 -1.356 3.162 -2.104 5.08 -2.104 c 1.922 0 3.728 0.748 5.085 2.105 l 6.24 6.242 c 2.802 2.8 2.803 7.359 0.002 10.162 c -1.004 1.004 -0.764 2.095 -0.531 2.655 c 0.233 0.564 0.835 1.506 2.252 1.507 c 0.001 0 0.002 0 0.003 0 c 1.919 0 3.724 0.748 5.08 2.105 C 89.252 32.938 90 34.744 90 36.665 v 8.827 c 0 1.92 -0.748 3.725 -2.105 5.082 s -3.162 2.105 -5.082 2.105 h -0.001 c -1.417 0 -2.018 0.941 -2.249 1.502 c -0.234 0.563 -0.476 1.655 0.527 2.656 c 1.358 1.359 2.105 3.165 2.104 5.085 c 0 1.92 -0.748 3.726 -2.106 5.082 l -6.24 6.24 c -1.357 1.357 -3.162 2.105 -5.082 2.105 s -3.726 -0.748 -5.083 -2.107 c -1 -1 -2.093 -0.761 -2.653 -0.525 c -0.563 0.232 -1.505 0.833 -1.506 2.251 C 60.522 78.93 57.299 82.154 53.337 82.155 C 53.337 82.155 53.337 82.155 53.337 82.155 z" style="stroke: none; stroke-width: 1; stroke-dasharray: none; stroke-linecap: butt; stroke-linejoin: miter; stroke-miterlimit: 10; fill: rgb(32,149,214); fill-rule: nonzero; opacity: 1;" transform=" matrix(1 0 0 1 0 0) " stroke-linecap="round" />
	<path d="M 55.235 57.281 c -0.766 0 -1.495 -0.442 -1.827 -1.187 c -0.45 -1.009 0.003 -2.191 1.012 -2.641 c 4.887 -2.181 8.045 -7.039 8.045 -12.377 c 0 -7.467 -6.075 -13.542 -13.542 -13.542 c -5.366 0 -10.233 3.181 -12.402 8.104 c -0.445 1.012 -1.627 1.47 -2.637 1.024 c -1.011 -0.445 -1.469 -1.625 -1.024 -2.636 c 2.808 -6.374 9.113 -10.492 16.063 -10.492 c 9.673 0 17.542 7.869 17.542 17.542 c 0 6.915 -4.089 13.207 -10.416 16.029 C 55.784 57.225 55.508 57.281 55.235 57.281 z" style="stroke: none; stroke-width: 1; stroke-dasharray: none; stroke-linecap: butt; stroke-linejoin: miter; stroke-miterlimit: 10; fill: rgb(32,149,214); fill-rule: nonzero; opacity: 1;" transform=" matrix(1 0 0 1 0 0) " stroke-linecap="round" />
	<path d="M 28.309 90 h -5.34 c -1.372 0 -2.662 -0.534 -3.632 -1.504 c -0.971 -0.973 -1.505 -2.262 -1.505 -3.634 c 0 -0.125 0 -0.458 -0.419 -0.63 c -0.423 -0.18 -0.66 0.057 -0.747 0.146 c -2.002 2.003 -5.261 2.005 -7.266 0.002 l -3.777 -3.777 c -0.971 -0.971 -1.506 -2.262 -1.505 -3.634 c 0 -1.371 0.534 -2.662 1.505 -3.632 c 0.088 -0.088 0.323 -0.323 0.148 -0.743 c -0.153 -0.371 -0.425 -0.418 -0.575 -0.424 h -0.06 C 2.305 72.168 0.001 69.864 0 67.033 l 0 -5.341 c 0.001 -2.831 2.305 -5.136 5.135 -5.139 c 0.139 0 0.46 0 0.634 -0.422 c 0.175 -0.422 -0.059 -0.656 -0.147 -0.745 C 3.62 53.384 3.62 50.125 5.62 48.122 l 3.778 -3.778 c 2.005 -2 5.262 -2 7.264 -0.001 c 0.098 0.098 0.326 0.325 0.746 0.149 c 0.423 -0.174 0.423 -0.507 0.423 -0.632 c -0.001 -1.371 0.534 -2.661 1.505 -3.632 c 0.481 -0.482 1.042 -0.857 1.666 -1.116 c 0.625 -0.258 1.285 -0.389 1.964 -0.39 l 5.343 0 c 2.833 0.001 5.138 2.306 5.138 5.138 c 0 0.137 0 0.457 0.423 0.632 c 0.421 0.174 0.656 -0.062 0.745 -0.15 c 0.97 -0.97 2.26 -1.504 3.632 -1.504 s 2.663 0.534 3.633 1.505 l 3.776 3.776 c 0.969 0.968 1.503 2.258 1.503 3.632 c 0 1.373 -0.533 2.663 -1.502 3.633 c -0.097 0.097 -0.324 0.323 -0.149 0.747 c 0.175 0.421 0.495 0.421 0.632 0.421 c 1.372 0 2.663 0.534 3.633 1.505 c 0.971 0.97 1.505 2.261 1.505 3.634 v 5.339 c 0 1.372 -0.534 2.663 -1.505 3.633 c -0.97 0.971 -2.261 1.505 -3.634 1.505 c -0.137 0 -0.456 0 -0.63 0.421 c -0.175 0.424 0.051 0.65 0.147 0.747 c 0.97 0.972 1.505 2.261 1.505 3.633 c 0 1.374 -0.535 2.664 -1.507 3.634 l -3.773 3.774 c -0.973 0.971 -2.261 1.505 -3.63 1.505 c -0.002 0 -0.004 0 -0.006 0 c -1.37 0 -2.661 -0.534 -3.631 -1.505 c -0.096 -0.096 -0.322 -0.319 -0.746 -0.147 c -0.421 0.175 -0.421 0.494 -0.421 0.631 C 33.444 87.695 31.14 90 28.309 90 z M 17.1 80.169 c 0.673 0 1.309 0.145 1.845 0.368 c 1.391 0.573 2.886 2.013 2.886 4.325 c 0 0.309 0.115 0.587 0.333 0.805 C 22.382 85.885 22.661 86 22.969 86 h 5.34 c 0.627 0 1.137 -0.512 1.138 -1.141 c 0 -2.303 1.493 -3.744 2.89 -4.324 c 1.399 -0.576 3.474 -0.618 5.105 1.015 c 0.218 0.218 0.497 0.333 0.805 0.333 c 0 0 0.001 0 0.001 0 c 0.308 0 0.585 -0.115 0.805 -0.334 l 3.774 -3.774 c 0.219 -0.219 0.333 -0.496 0.333 -0.805 s -0.115 -0.587 -0.333 -0.805 c -1.632 -1.632 -1.594 -3.707 -1.015 -5.104 c 0.578 -1.397 2.018 -2.892 4.326 -2.892 c 0.309 0 0.588 -0.115 0.806 -0.333 s 0.333 -0.496 0.333 -0.805 v -5.339 c 0 -0.309 -0.115 -0.588 -0.333 -0.806 s -0.496 -0.333 -0.805 -0.333 c -2.307 0 -3.748 -1.493 -4.328 -2.892 c -0.579 -1.399 -0.615 -3.474 1.016 -5.104 c 0.213 -0.214 0.331 -0.5 0.331 -0.805 s -0.118 -0.59 -0.331 -0.803 l -3.776 -3.777 c -0.436 -0.436 -1.173 -0.436 -1.609 0 c -1.633 1.632 -3.707 1.596 -5.104 1.016 c -1.398 -0.58 -2.891 -2.021 -2.891 -4.327 c 0 -0.627 -0.511 -1.138 -1.139 -1.138 l -5.34 0 c -0.152 0 -0.3 0.029 -0.438 0.086 c -0.134 0.056 -0.258 0.139 -0.367 0.248 c -0.218 0.218 -0.333 0.496 -0.333 0.803 c 0 2.312 -1.495 3.752 -2.894 4.329 c -1.396 0.578 -3.471 0.616 -5.103 -1.017 c -0.442 -0.441 -1.165 -0.439 -1.609 0.002 l -3.775 3.775 c -0.442 0.443 -0.442 1.166 0.001 1.609 c 1.632 1.631 1.594 3.706 1.015 5.104 c -0.578 1.397 -2.019 2.892 -4.328 2.892 C 4.512 60.555 4.001 61.065 4 61.693 l 0 5.339 c 0 0.611 0.485 1.112 1.091 1.137 h 0.047 c 2.309 0 3.749 1.494 4.327 2.894 c 0.58 1.394 0.619 3.469 -1.015 5.103 c -0.218 0.218 -0.333 0.496 -0.333 0.805 s 0.115 0.586 0.333 0.805 l 3.776 3.776 c 0.444 0.441 1.167 0.442 1.609 -0.001 C 14.843 80.541 16.019 80.169 17.1 80.169 z" style="stroke: none; stroke-width: 1; stroke-dasharray: none; stroke-linecap: butt; stroke-linejoin: miter; stroke-miterlimit: 10; fill: rgb(32,149,214); fill-rule: nonzero; opacity: 1;" transform=" matrix(1 0 0 1 0 0) " stroke-linecap="round" />
	<path d="M 25.654 75.764 c -4.477 0 -8.733 -2.653 -10.549 -7.039 c -1.164 -2.81 -1.163 -5.908 0.004 -8.725 c 1.167 -2.816 3.357 -5.008 6.167 -6.172 l 0 0 c 2.811 -1.163 5.909 -1.163 8.725 0.004 c 2.816 1.166 5.008 3.356 6.172 6.166 c 2.406 5.809 -0.362 12.491 -6.17 14.897 C 28.58 75.484 27.105 75.764 25.654 75.764 z M 25.631 56.958 c -0.958 0 -1.915 0.188 -2.825 0.565 h 0 c -1.823 0.755 -3.244 2.178 -4.001 4.007 c -0.758 1.829 -0.759 3.841 -0.004 5.663 c 1.562 3.771 5.901 5.566 9.671 4.007 c 3.77 -1.563 5.567 -5.9 4.005 -9.671 c -0.755 -1.823 -2.178 -3.244 -4.007 -4.002 C 27.554 57.147 26.592 56.958 25.631 56.958 z M 22.041 55.676 h 0.01 H 22.041 z" style="stroke: none; stroke-width: 1; stroke-dasharray: none; stroke-linecap: butt; stroke-linejoin: miter; stroke-miterlimit: 10; fill: rgb(32,149,214); fill-rule: nonzero; opacity: 1;" transform=" matrix(1 0 0 1 0 0) " stroke-linecap="round" />
</g>
</svg>