<svg id="visual" viewBox="0 0 900 600" width="900" height="600" xmlns="http://www.w3.org/2000/svg" xmlns:xlink="http://www.w3.org/1999/xlink" version="1.1"><rect x="0" y="0" width="900" height="600" fill="#002233"></rect><path d="M0 484L10 484.2C20 484.3 40 484.7 60 487.8C80 491 100 497 120 504C140 511 160 519 180 524.2C200 529.3 220 531.7 240 532.7C260 533.7 280 533.3 300 529.5C320 525.7 340 518.3 360 511.2C380 504 400 497 420 497.2C440 497.3 460 504.7 480 503.5C500 502.3 520 492.7 540 490.3C560 488 580 493 600 500C620 507 640 516 660 516C680 516 700 507 720 502.7C740 498.3 760 498.7 780 501C800 503.3 820 507.7 840 504.8C860 502 880 492 890 487L900 482L900 601L890 601C880 601 860 601 840 601C820 601 800 601 780 601C760 601 740 601 720 601C700 601 680 601 660 601C640 601 620 601 600 601C580 601 560 601 540 601C520 601 500 601 480 601C460 601 440 601 420 601C400 601 380 601 360 601C340 601 320 601 300 601C280 601 260 601 240 601C220 601 200 601 180 601C160 601 140 601 120 601C100 601 80 601 60 601C40 601 20 601 10 601L0 601Z" fill="#0066FF" stroke-linecap="round" stroke-linejoin="miter"></path></svg>